<svg width="113" height="114" xmlns="http://www.w3.org/2000/svg" xmlns:xlink="http://www.w3.org/1999/xlink" overflow="hidden"><defs><clipPath id="clip0"><rect x="90" y="398" width="113" height="114"/></clipPath></defs><g clip-path="url(#clip0)" transform="translate(-90 -398)"><path d="M9.41667 18.8333 9.41667 94.1667 103.583 94.1667 103.583 18.8333 9.41667 18.8333ZM98.875 23.5417 98.875 37.6667 14.125 37.6667 14.125 23.5417 98.875 23.5417ZM14.125 89.4583 14.125 42.375 98.875 42.375 98.875 89.4583 14.125 89.4583ZM94.1667 32.9583 89.4583 32.9583 89.4583 28.25 94.1667 28.25 94.1667 32.9583ZM84.75 32.9583 80.0417 32.9583 80.0417 28.25 84.75 28.25 84.75 32.9583ZM75.3333 56.5 80.0417 56.5 80.0417 82.3958 75.3333 82.3958 75.3333 56.5ZM61.2083 54.1458 65.9167 54.1458 65.9167 82.3958 61.2083 82.3958 61.2083 54.1458ZM47.0833 63.5625 51.7917 63.5625 51.7917 82.3958 47.0833 82.3958 47.0833 63.5625ZM32.9583 49.4375 37.6667 49.4375 37.6667 82.3958 32.9583 82.3958 32.9583 49.4375Z" transform="matrix(1 0 0 1.00885 90 398)"/></g></svg>